<svg xmlns="http://www.w3.org/2000/svg" viewBox="0 0 448 512" role="img" aria-label="Springer">
  <path fill="#2F8C97" d="M226.3 6.4C218.6 2.2 209.4 1 200.9 3.1L98.4 28.7C76.7 34.1 64 53.3 64 75.3V240l0 9.4c0 6.7 3.4 13 9 16.6c5.6 3.7 12.7 4.3 18.9 1.7l35-15c3.4-1.5 7.1-2.2 10.8-2.2H176c8.8 0 16 7.2 16 16s-7.2 16-16 16H143.2L57.3 337.6C41.9 350.8 32 370.4 32 391.8V448c0 17.7 14.3 32 32 32H384c17.7 0 32-14.3 32-32V262.3c0-88.4-50.4-169.2-129.7-207.9L226.3 6.4zM144 96a16 16 0 1 1 0 32 16 16 0 1 1 0-32z"/>
</svg>
